<svg xmlns="http://www.w3.org/2000/svg" viewBox="0 0 32 32" width="32" height="32">
  <defs>
    <linearGradient id="heartGradient" x1="0%" y1="0%" x2="100%" y2="100%">
      <stop offset="0%" style="stop-color:#ff6b9d;stop-opacity:1" />
      <stop offset="100%" style="stop-color:#c44569;stop-opacity:1" />
    </linearGradient>
  </defs>
  <path d="M16 28c-1.5-1.5-3-3-4.5-4.5C8.5 20.5 6 17.5 6 14c0-3.5 2.5-6 6-6 2 0 3.5 1 4 2.5.5-1.5 2-2.5 4-2.5 3.5 0 6 2.5 6 6 0 3.5-2.5 6.5-5.5 9.5C19 25 17.5 26.5 16 28z" fill="url(#heartGradient)"/>
  <circle cx="12" cy="12" r="1.5" fill="#fff" opacity="0.8"/>
  <circle cx="20" cy="12" r="1.5" fill="#fff" opacity="0.8"/>
</svg>
